<svg width="32" height="36" viewBox="0 0 32 36" fill="none" xmlns="http://www.w3.org/2000/svg">
<path d="M28.8407 24.5017H10.2313L11.1657 22.4031L26.6907 22.3721C27.2157 22.3721 27.6657 21.9586 27.7595 21.3866L29.9095 8.11601C29.9657 7.76797 29.8813 7.40958 29.6751 7.13735C29.5732 7.00337 29.446 6.89545 29.3025 6.82106C29.1589 6.74668 29.0024 6.70762 28.8438 6.7066L9.09385 6.63423L8.9251 5.75895C8.81885 5.2007 8.3626 4.79407 7.84385 4.79407H3.01572C2.72316 4.79407 2.44257 4.92223 2.2357 5.15035C2.02882 5.37848 1.9126 5.68789 1.9126 6.01051C1.9126 6.33313 2.02882 6.64253 2.2357 6.87066C2.44257 7.09878 2.72316 7.22694 3.01572 7.22694H6.9501L7.6876 11.0934L9.50322 20.787L7.16572 24.9945C7.04433 25.1752 6.97122 25.3897 6.95465 25.6138C6.93808 25.8379 6.97872 26.0627 7.07197 26.2627C7.25947 26.6727 7.6376 26.9312 8.05635 26.9312H10.0188C9.60047 27.544 9.37448 28.2903 9.3751 29.0574C9.3751 31.0078 10.8126 32.593 12.5813 32.593C14.3501 32.593 15.7876 31.0078 15.7876 29.0574C15.7876 28.2889 15.5563 27.5411 15.1438 26.9312H20.1782C19.7598 27.544 19.5339 28.2903 19.5345 29.0574C19.5345 31.0078 20.972 32.593 22.7407 32.593C24.5095 32.593 25.947 31.0078 25.947 29.0574C25.947 28.2889 25.7157 27.5411 25.3032 26.9312H28.8438C29.4501 26.9312 29.947 26.3867 29.947 25.7147C29.9451 25.3925 29.8278 25.084 29.6206 24.8568C29.4133 24.6296 29.133 24.5019 28.8407 24.5017ZM9.55322 9.03265L27.547 9.09812L25.7845 19.9806L11.6501 20.0082L9.55322 9.03265ZM12.5813 30.1463C12.0376 30.1463 11.5938 29.657 11.5938 29.0574C11.5938 28.4578 12.0376 27.9684 12.5813 27.9684C13.1251 27.9684 13.5688 28.4578 13.5688 29.0574C13.5688 29.3462 13.4648 29.6231 13.2796 29.8274C13.0944 30.0316 12.8432 30.1463 12.5813 30.1463ZM22.7407 30.1463C22.197 30.1463 21.7532 29.657 21.7532 29.0574C21.7532 28.4578 22.197 27.9684 22.7407 27.9684C23.2845 27.9684 23.7282 28.4578 23.7282 29.0574C23.7282 29.3462 23.6242 29.6231 23.439 29.8274C23.2538 30.0316 23.0026 30.1463 22.7407 30.1463Z" fill="white"/>
</svg>
