<svg width="46" height="46" viewBox="0 0 46 46" fill="none" xmlns="http://www.w3.org/2000/svg">
<path d="M22.9797 2.85889C14.1612 2.85889 4.78735 5.19756 4.78735 9.52991V36.214C4.78735 40.5463 14.1612 42.885 22.9797 42.885C31.7983 42.885 41.1721 40.5463 41.1721 36.214V9.52991C41.1721 5.19756 31.7983 2.85889 22.9797 2.85889ZM22.9797 33.355C12.8935 33.355 6.70234 30.5798 6.70234 28.59V25.9845C9.89271 28.3117 16.5837 29.543 22.9797 29.543C29.3758 29.543 36.0668 28.3117 39.2571 25.9845V28.59C39.2571 30.5798 33.066 33.355 22.9797 33.355ZM22.9797 25.731C12.8935 25.731 6.70234 22.9558 6.70234 20.9659V18.3585C9.89271 20.6877 16.5837 21.9189 22.9797 21.9189C29.3758 21.9189 36.0668 20.6877 39.2571 18.3585V20.9659C39.2571 22.9558 33.066 25.731 22.9797 25.731ZM39.2571 36.214C39.2571 38.2039 33.066 40.979 22.9797 40.979C12.8935 40.979 6.70234 38.2039 6.70234 36.214V33.6085C9.89271 35.9357 16.5837 37.167 22.9797 37.167C29.3758 37.167 36.0668 35.9357 39.2571 33.6085V36.214ZM22.9797 18.1069C12.8935 18.1069 6.70234 15.3318 6.70234 13.3419V9.52991C6.70234 7.54004 12.8935 4.76489 22.9797 4.76489C33.066 4.76489 39.2571 7.54004 39.2571 9.52991V13.3419C39.2571 15.3318 33.066 18.1069 22.9797 18.1069Z" fill="#1762A3"/>
</svg>
