<svg width="47" height="47" viewBox="0 0 47 47" fill="none" xmlns="http://www.w3.org/2000/svg">
<path fill-rule="evenodd" clip-rule="evenodd" d="M42.0814 7.07138H27.5323V3.64307L3.61743 7.33421V39.6884L27.5323 43.8076V38.7261H42.0814C42.5221 38.7485 42.9536 38.5954 43.2817 38.3004C43.6098 38.0054 43.8077 37.5925 43.8322 37.152V8.64406C43.8073 8.2038 43.6092 7.79127 43.2812 7.49659C42.9532 7.20191 42.5218 7.04904 42.0814 7.07138ZM42.3112 37.4134H27.4835L27.459 34.7004H31.031V31.5406H27.4318L27.4145 29.6735H31.031V26.5138H27.3872L27.37 24.6467H31.031V21.4869H27.3585V19.6198H31.031V16.4601H27.3585V14.593H31.031V11.4332H27.3585V8.56076H42.3112V37.4134Z" fill="#20744A"/>
<path d="M33.0417 11.429H39.2506V14.5887H33.0417V11.429Z" fill="#20744A"/>
<path d="M33.0417 16.4573H39.2506V19.617H33.0417V16.4573Z" fill="#20744A"/>
<path d="M33.0417 21.4856H39.2506V24.6453H33.0417V21.4856Z" fill="#20744A"/>
<path d="M33.0417 26.5139H39.2506V29.6736H33.0417V26.5139Z" fill="#20744A"/>
<path d="M33.0417 31.5422H39.2506V34.702H33.0417V31.5422Z" fill="#20744A"/>
<path fill-rule="evenodd" clip-rule="evenodd" d="M9.8607 16.0738L12.9429 15.8971L14.8804 21.2242L17.1697 15.6774L20.2519 15.5007L16.5091 23.064L20.2519 30.6459L16.9931 30.4262L14.7928 24.6467L12.591 30.2064L9.59644 29.9421L13.075 23.2449L9.8607 16.0738Z" fill="white"/>
</svg>
