<svg width="46" height="46" viewBox="0 0 46 46" fill="none" xmlns="http://www.w3.org/2000/svg">
<g clip-path="url(#clip0)">
<path d="M22.9799 0C10.2883 0 0 10.2402 0 22.8723C0 35.5044 10.2883 45.7446 22.9799 45.7446C35.6714 45.7446 45.9597 35.5044 45.9597 22.8723C45.9597 10.2402 35.6714 0 22.9799 0Z" fill="#40B3E0"/>
<path d="M34.1617 13.157L30.0571 33.7544C30.0571 33.7544 29.4831 35.1828 27.9045 34.4972L18.4328 27.2695L14.9887 25.6127L9.19098 23.67C9.19098 23.67 8.30123 23.3559 8.21505 22.6702C8.12888 21.9846 9.21971 21.6133 9.21971 21.6133L32.2671 12.6145C32.2671 12.6145 34.1615 11.7861 34.1615 13.1573" fill="white"/>
<path d="M17.7048 33.5229C17.7048 33.5229 17.4283 33.4971 17.0836 32.4114C16.7395 31.3259 14.9885 25.6125 14.9885 25.6125L28.9089 16.8138C28.9089 16.8138 29.7127 16.3281 29.684 16.8138C29.684 16.8138 29.8274 16.8995 29.3967 17.2994C28.9664 17.6995 18.4615 27.0981 18.4615 27.0981" fill="#D2E5F1"/>
<path d="M22.0644 30.0406L18.3181 33.4404C18.3181 33.4404 18.0251 33.6616 17.7048 33.5229L18.4222 27.208" fill="#B5CFE4"/>
</g>
<defs>
<clipPath id="clip0">
<rect width="45.9597" height="45.7446" fill="white"/>
</clipPath>
</defs>
</svg>
